Coordinates
version=1
nRows=30
nColumns=23
inDegrees=yes

Units are S.I. units (second, meters, Newtons, ...)
If the header above contains a line with 'inDegrees', this indicates whether rotational values are in degrees (yes) or radians (no).

endheader
time	pelvis_tilt	pelvis_list	pelvis_rotation	pelvis_tx	pelvis_ty	pelvis_tz	hip_flexion_r	hip_adduction_r	hip_rotation_r	knee_angle_r	knee_angle_r_beta	ankle_angle_r	subtalar_angle_r	mtp_angle_r	hip_flexion_l	hip_adduction_l	hip_rotation_l	knee_angle_l	knee_angle_l_beta	ankle_angle_l	subtalar_angle_l	mtp_angle_l
      7.50000000	      0.31396546	    -10.15182068	     -9.52394560	      2.22892806	      0.99579500	      1.02275402	     25.03955470	     13.10078633	    -11.69134560	     43.58379533	      0.76068073	     15.17322558	      6.71558784	      0.00000000	      6.42304021	    -10.27588081	    -10.42749294	    121.68673708	      2.12383422	    -13.87111806	    -16.98070931	      0.00000000
      7.50666667	     -0.59158691	    -10.64475989	    -10.06575087	      2.22554864	      0.99049872	      1.02422693	     25.08564526	     14.16360830	    -10.58030910	     45.29068535	      0.79047158	     17.49849421	      5.41587171	      0.00000000	     10.26288116	    -12.09718905	     -9.43822121	    124.53037272	      2.17346502	    -13.11639868	    -16.20600543	      0.00000000
      7.51333333	     -1.43946497	    -11.09306824	    -10.51799573	      2.22225111	      0.98610145	      1.02560103	     24.83879332	     15.08968156	     -9.58787287	     46.65153715	      0.81422292	     19.79533035	      4.75989153	      0.00000000	     14.20572519	    -13.86067130	     -8.20463160	    126.93289098	      2.21539688	    -12.32180801	    -15.28125536	      0.00000000
      7.52000000	     -2.12514739	    -11.44744588	    -10.82635951	      2.21914974	      0.98274655	      1.02670116	     24.19087016	     15.79286544	     -8.65820539	     47.62977286	      0.83129636	     21.90593553	      4.37456527	      0.00000000	     18.13599082	    -15.41331162	     -6.78200582	    128.83366749	      2.24857169	    -11.59460411	    -14.42394041	      0.00000000
      7.52666667	     -2.49929559	    -11.68378289	    -10.95955303	      2.21645234	      0.98073263	      1.02749148	     22.95031403	     16.21849442	     -7.74867399	     48.16858550	      0.84070041	     23.86648527	      4.33150218	      0.00000000	     21.81957856	    -16.63346712	     -5.29451567	    130.15221729	      2.27158472	    -10.94434791	    -13.76841978	      0.00000000
      7.53333333	     -2.28274323	    -11.57642212	    -10.90820442	      2.21437081	      0.98050057	      1.02777722	     20.84756041	     16.06461960	     -6.75841510	     48.28688766	      0.84276518	     25.47922949	      4.41279275	      0.00000000	     24.82605426	    -17.15798233	     -4.10457076	    130.76224439	      2.28223170	    -10.45477727	    -13.64616091	      0.00000000
      7.54000000	     -2.67414999	    -11.57794140	    -10.66406557	      2.21251802	      0.98008546	      1.02803651	     19.23146620	     15.97875356	     -6.20920320	     48.01787656	      0.83807005	     26.81615962	      4.76710504	      0.00000000	     28.68908752	    -17.73135329	     -2.46885406	    131.14207247	      2.28886095	     -9.60592395	    -12.85002107	      0.00000000
      7.54666667	     -2.39412271	    -11.27552047	    -10.25564313	      2.21138939	      0.98147866	      1.02789425	     16.68687159	     15.41229877	     -5.53345683	     47.32788315	      0.82602739	     27.72997961	      5.12754383	      0.00000000	     31.57618123	    -17.64264264	     -1.32848033	    130.82077960	      2.28325333	     -9.02301399	    -12.83102210	      0.00000000
      7.55333333	     -2.10262853	    -10.81289889	     -9.69307429	      2.21085495	      0.98362800	      1.02764084	     13.95565533	     14.60889930	     -5.05070581	     46.23104176	      0.80688390	     28.26461308	      5.52925685	      0.00000000	     34.30517400	    -17.19568187	     -0.35313512	    130.04316455	      2.26968139	     -8.36277020	    -12.89340117	      0.00000000
      7.56000000	     -1.89329753	    -10.18319139	     -9.10859181	      2.21070635	      0.98634631	      1.02734770	     11.20621610	     13.68205016	     -4.56392051	     44.82913855	      0.78241607	     28.44968768	      5.98571819	      0.00000000	     36.90197718	    -16.47040884	      0.30629225	    128.83975963	      2.24867801	     -7.73677562	    -13.02651579	      0.00000000
      7.56666667	     -1.30216520	     -9.49433257	     -8.16898460	      2.21135985	      0.99006510	      1.02679003	      7.86081414	     12.53174197	     -4.63111728	     42.99393424	      0.75038571	     28.36575780	      6.70100528	      0.00000000	     38.82839892	    -15.38514131	      0.91022753	    127.20511608	      2.22014810	     -7.12856460	    -13.38845811	      0.00000000
      7.57333333	     -0.70165646	     -8.54520976	     -7.31679813	      2.21250841	      0.99434818	      1.02638739	      4.43293028	     11.18791456	     -4.70906701	     40.95514707	      0.71480216	     28.05804365	      7.67938520	      0.00000000	     40.37726646	    -14.04269110	      1.02592339	    125.16208042	      2.18449040	     -6.50684556	    -13.92009099	      0.00000000
      7.58000000	     -0.82213132	     -7.58925807	     -6.32245919	      2.21388860	      0.99796508	      1.02591963	      1.76813050	     10.06661731	     -4.99491616	     38.75041634	      0.67632235	     27.17322525	      7.95479630	      0.00000000	     42.65417564	    -12.53727981	      1.30730387	    122.96539881	      2.14615108	     -5.83345309	    -14.31933005	      0.00000000
      7.58666667	     -0.34994662	     -6.52426618	     -5.32961890	      2.21594490	      1.00280063	      1.02564623	     -1.70723134	      8.87590689	     -5.31327924	     36.14659459	      0.63087709	     25.70442438	      8.32088493	      0.00000000	     43.80503291	    -10.95786583	      1.17690266	    120.32401824	      2.10005029	     -5.36552063	    -15.10718686	      0.00000000
      7.59333333	     -0.35132473	     -5.44731541	     -4.27156350	      2.21829359	      1.00724289	      1.02535973	     -4.67766440	      7.87150459	     -5.78386664	     33.41381983	      0.58318117	     23.41209308	      8.18995383	      0.00000000	     45.31152105	     -9.28540775	      1.08569780	    117.50082646	      2.05077630	     -4.83387417	    -15.75839605	      0.00000000
      7.60000000	     -0.46591363	     -4.37975466	     -3.21111235	      2.22097632	      1.01175437	      1.02515110	     -7.55698797	      7.05940072	     -6.20854722	     30.50890266	      0.53248080	     20.33082123	      7.44435199	      0.00000000	     46.68044191	     -7.62982136	      0.93366348	    114.44415065	      1.99742724	     -4.32814935	    -16.33355669	      0.00000000
      7.60666667	     -0.71940733	     -3.27566419	     -2.16659798	      2.22393221	      1.01617947	      1.02497270	    -10.22471796	      6.27761550	     -6.89371426	     27.64480216	      0.48249282	     16.67213231	      6.73239235	      0.00000000	     47.95235410	     -5.95479659	      0.69536610	    111.16292872	      1.94015911	     -3.90415700	    -16.96146748	      0.00000000
      7.61333333	     -1.12927409	     -2.21591746	     -1.12190001	      2.22706481	      1.02046165	      1.02475771	    -12.62205051	      5.63337849	     -7.74022461	     24.89169801	      0.43444209	     12.48902704	      5.68090120	      0.00000000	     49.18073093	     -4.31262311	      0.46178501	    107.70322341	      1.87977586	     -3.50132480	    -17.41230650	      0.00000000
      7.62000000	     -1.69143300	     -1.25075248	     -0.12892436	      2.23026089	      1.02463828	      1.02457611	    -14.71890068	      5.18200050	     -8.52818938	     22.31062552	      0.38939387	      7.84663632	      4.19775784	      0.00000000	     50.36243317	     -2.79781863	      0.24041132	    104.06073075	      1.81620237	     -3.10934402	    -17.68461788	      0.00000000
      7.62666667	     -2.43989769	     -0.28029848	      0.89290163	      2.23341015	      1.02843499	      1.02417807	    -16.23587106	      4.55826354	    -10.35722760	     20.50144818	      0.35781777	      3.40249073	      3.91297745	      0.00000000	     51.56818783	     -1.21588283	      0.03053975	    100.25741064	      1.74982192	     -2.76673527	    -17.80200598	      0.00000000
      7.63333333	     -3.00426926	      0.58615781	      1.71213417	      2.23655242	      1.03267509	      1.02397775	    -17.85577680	      4.19590364	    -11.32459644	     18.74786301	      0.32721194	     -1.49081216	      2.23083758	      0.00000000	     52.31101603	      0.06011044	     -0.27892029	     96.23785584	      1.67966745	     -2.42852319	    -17.70644832	      0.00000000
      7.64000000	     -3.72263266	      1.32549662	      2.54320467	      2.23948331	      1.03657317	      1.02355819	    -18.90264595	      3.82330743	    -12.88033155	     17.83458859	      0.31127229	     -5.91691759	      1.39036023	      0.00000000	     53.07681122	      1.27646049	     -0.47144611	     92.09362272	      1.60733694	     -2.06740567	    -17.31987975	      0.00000000
      7.64666667	     -4.55776033	      1.90981277	      3.32172266	      2.24211364	      1.04020508	      1.02299959	    -19.42830552	      3.46867213	    -14.62870502	     17.74746780	      0.30975175	     -9.72664003	      0.92345056	      0.00000000	     53.81787599	      2.34336342	     -0.58113939	     87.82610803	      1.53285475	     -1.63418395	    -16.58465205	      0.00000000
      7.65333333	     -5.23923841	      2.41556773	      4.00219448	      2.24450287	      1.04389803	      1.02229122	    -19.86315530	      3.15012756	    -15.97494072	     18.19151864	      0.31750190	    -13.06927847	      0.32704914	      0.00000000	     54.19722893	      3.27406753	     -0.70100236	     83.40537050	      1.45569833	     -1.17444355	    -15.58947576	      0.00000000
      7.66000000	     -6.07009604	      2.70946939	      4.61295380	      2.24655028	      1.04716346	      1.02141773	    -19.82985009	      2.94872075	    -16.95474499	     19.26691300	      0.33627107	    -15.72587031	     -0.04644503	      0.00000000	     54.60681449	      3.99706855	     -0.73110156	     78.90193855	      1.37709861	     -0.75600522	    -14.36955168	      0.00000000
      7.66666667	     -6.69404846	      2.99955257	      5.17745534	      2.24830037	      1.05038934	      1.02032299	    -19.80074370	      2.72280805	    -17.51957648	     20.82491324	      0.36346330	    -17.59207493	     -0.36567798	      0.00000000	     54.61398177	      4.69965966	     -0.78188980	     74.27460869	      1.29633647	     -0.30188009	    -12.87858884	      0.00000000
      7.67333333	     -7.05652387	      3.28790201	      5.60120011	      2.24969687	      1.05348066	      1.01922615	    -19.76754255	      2.36635574	    -17.90816427	     23.04606216	      0.40222966	    -18.41243120	      0.20380116	      0.00000000	     54.19511969	      5.23519351	     -0.98501238	     69.60590977	      1.21485230	      0.31849704	    -10.89223268	      0.00000000
      7.68000000	     -7.53283264	      3.40642700	      5.98226650	      2.25081887	      1.05609796	      1.01802515	    -19.47219948	      2.30969494	    -17.31860693	     25.43519995	      0.44392799	    -18.82500497	      0.20940154	      0.00000000	     53.76424750	      5.63435009	     -1.10668920	     64.87926723	      1.13235683	      0.65099711	     -9.00453951	      0.00000000
      7.68666667	     -7.87148785	      3.40507305	      6.31144643	      2.25162331	      1.05841137	      1.01683707	    -19.12569129	      2.45017690	    -16.23343613	     28.14160374	      0.49116364	    -18.64766588	      0.48181099	      0.00000000	     53.08709639	      5.89212205	     -1.21409333	     60.18996933	      1.05051314	      0.85113441	     -6.82415908	      0.00000000
      7.69333333	     -8.09722252	      3.26446578	      6.59199522	      2.25217915	      1.06036722	      1.01578488	    -18.69964223	      2.84828770	    -14.66810280	     31.14103032	      0.54351351	    -18.07327223	      0.64143748	      0.00000000	     52.21125566	      5.99146574	     -1.28817251	     55.58822959	      0.97019763	      0.83629762	     -4.61824536	      0.00000000
